<?xml version="1.0" standalone="no"?>
<!DOCTYPE svg PUBLIC "-//W3C//DTD SVG 20010904//EN"
 "http://www.w3.org/TR/2001/REC-SVG-20010904/DTD/svg10.dtd">
<svg version="1.0" xmlns="http://www.w3.org/2000/svg"
 width="100.000000pt" height="100.000000pt" viewBox="0 0 100.000000 100.000000"
 preserveAspectRatio="xMidYMid meet">
<metadata>
Created by potrace 1.11, written by Peter Selinger 2001-2013
</metadata>
<g transform="translate(0.000000,100.000000) scale(0.100000,-0.100000)"
fill="#000000" stroke="none">
<path d="M557 984 c-77 -14 -174 -55 -233 -100 -43 -32 -94 -111 -94 -146 0
-15 -4 -28 -10 -28 -5 0 -21 -17 -35 -37 -33 -49 -36 -123 -5 -123 28 0 25
-15 -7 -29 -30 -14 -102 -68 -120 -91 -7 -8 -13 -27 -13 -42 0 -14 -9 -48 -20
-74 -12 -26 -20 -62 -18 -78 l3 -31 13 24 c11 18 11 22 1 16 -9 -6 -10 -3 -5
11 5 10 11 27 13 37 3 9 9 17 14 17 5 0 4 -11 -1 -24 -8 -21 -5 -28 18 -45 15
-11 21 -21 15 -21 -20 0 -15 -18 6 -25 20 -6 84 -95 75 -104 -3 -3 -9 1 -14 9
-8 12 -10 9 -10 -10 l-1 -25 -10 25 c-10 24 -11 24 -25 6 -8 -11 -14 -27 -15
-35 0 -9 -2 -26 -5 -39 l-4 -23 145 2 c80 1 145 6 145 10 0 5 -11 9 -24 9 -25
0 -43 25 -25 35 5 4 8 1 7 -6 -2 -6 3 -14 11 -17 10 -3 13 1 8 17 -6 24 4 26
36 9 20 -10 21 -10 8 6 -12 14 -12 17 -1 14 8 -2 14 2 15 9 0 12 147 155 152
149 2 -2 10 -29 19 -61 8 -33 24 -74 35 -92 11 -18 17 -33 12 -33 -4 -1 2 -9
15 -19 15 -14 18 -21 10 -25 -7 -2 15 -4 50 -3 35 1 65 5 68 9 2 4 25 17 49
29 25 13 53 31 62 41 19 21 41 25 24 4 -8 -10 -9 -16 -1 -21 6 -4 10 -3 9 2
-3 13 18 58 34 71 13 11 16 2 22 -63 4 -41 10 -75 13 -75 4 0 6 62 6 137 -2
138 -12 187 -68 313 -4 10 3 19 24 28 38 17 47 51 31 116 -14 58 -14 57 -5
147 20 215 -111 295 -399 243z m231 -265 c85 -25 108 -48 50 -50 -76 -2 -122
-10 -151 -24 -47 -23 -99 -19 -127 10 -32 34 -108 49 -193 38 -65 -9 -67 -9
-50 8 53 52 319 62 471 18z m-469 -86 c31 -60 64 -85 120 -91 39 -3 58 0 85
16 43 26 53 15 36 -39 -7 -22 -11 -42 -7 -45 10 -11 98 -7 109 4 6 6 12 37 13
68 1 56 1 56 41 70 41 14 111 18 138 8 19 -7 12 -53 -12 -71 -19 -15 -90 -17
-127 -3 -16 6 -24 6 -20 0 10 -16 72 -28 115 -23 l41 6 -11 -28 c-19 -51 -74
-116 -128 -152 -44 -28 -66 -36 -117 -41 -57 -4 -71 -1 -128 26 -64 31 -148
107 -175 158 -20 38 -17 174 3 174 3 0 13 -17 24 -37z m204 15 c48 -14 47 -42
-1 -75 -52 -35 -116 -26 -159 21 -18 19 -33 40 -33 45 0 14 79 30 120 25 19
-3 52 -10 73 -16z m-303 -29 c0 -18 -2 -19 -15 -9 -15 12 -12 30 6 30 5 0 9
-10 9 -21z m706 -5 c-4 -9 -9 -15 -11 -12 -3 3 -3 13 1 22 4 9 9 15 11 12 3
-3 3 -13 -1 -22z m-275 -21 c5 -15 9 -45 7 -67 -3 -41 -3 -41 -44 -41 l-40 -1
2 58 c3 69 8 78 40 78 17 0 27 -8 35 -27z m-441 -7 c0 -2 -8 -10 -17 -17 -16
-13 -17 -12 -4 4 13 16 21 21 21 13z m740 -14 c0 -5 -7 -17 -15 -28 -14 -19
-14 -19 -15 2 0 11 3 24 7 27 9 10 23 9 23 -1z m-40 -17 c0 -8 -4 -15 -10 -15
-5 0 -10 7 -10 15 0 8 5 15 10 15 6 0 10 -7 10 -15z m-17 -50 c-7 -21 -13 -19
-13 6 0 11 4 18 10 14 5 -3 7 -12 3 -20z m-613 -15 c23 -55 98 -121 187 -165
l88 -44 -83 -81 c-46 -44 -87 -78 -92 -75 -4 3 -11 -2 -14 -11 -4 -10 -12 -14
-23 -10 -10 4 -14 4 -10 0 10 -10 -70 -46 -91 -42 -9 3 -16 9 -15 16 2 6 -3 9
-11 6 -7 -3 -19 2 -26 11 -7 8 -10 15 -7 15 3 0 -8 14 -25 32 -18 19 -28 39
-25 50 3 10 1 15 -4 12 -19 -11 -21 27 -3 48 16 18 16 20 3 15 -9 -3 -22 0
-28 6 -9 9 -11 7 -6 -8 4 -13 1 -12 -9 5 -8 14 -19 50 -24 79 l-10 54 39 39
c25 25 45 38 55 34 8 -3 12 -2 9 3 -10 17 34 38 75 37 32 0 41 -5 50 -26z
m575 -10 c-3 -5 -2 -10 4 -10 6 0 18 -11 27 -25 19 -30 74 -182 74 -208 0 -30
-30 -79 -45 -73 -9 3 -12 0 -9 -9 3 -8 -15 -29 -48 -53 -74 -55 -85 -57 -103
-22 -16 31 -32 42 -21 15 3 -8 1 -15 -4 -15 -6 0 -10 10 -10 23 0 14 -6 24
-14 24 -11 0 -12 -5 -5 -18 5 -10 9 -28 8 -41 0 -21 -1 -21 -8 -4 -7 19 -8 19
-15 1 -6 -16 -9 -17 -16 -5 -6 9 -10 10 -10 3 0 -7 8 -17 18 -22 9 -6 12 -11
4 -11 -13 0 -42 30 -42 43 1 4 -6 15 -15 24 -9 8 -14 22 -11 30 3 8 2 12 -3 9
-10 -6 -23 26 -38 92 -9 38 -8 44 11 57 11 8 31 15 44 15 52 0 202 117 202
157 0 9 20 33 28 33 2 0 0 -4 -3 -10z m-667 -420 c3 -8 0 -10 -7 -6 -7 4 -18
2 -26 -4 -18 -15 -20 -4 -2 15 14 16 29 15 35 -5z"/>
<path d="M783 602 c-30 -5 -29 -30 1 -38 34 -8 61 -1 61 15 0 17 -32 28 -62
23z"/>
<path d="M573 423 c-40 -8 -25 -23 22 -23 25 0 45 5 45 10 0 6 -4 10 -9 10 -5
0 -15 2 -23 4 -7 2 -23 1 -35 -1z"/>
<path d="M385 630 c-12 -20 17 -40 56 -40 44 0 60 17 34 37 -22 15 -81 17 -90
3z"/>
<path d="M165 370 c3 -5 -3 -10 -15 -10 -12 0 -19 -4 -16 -9 3 -5 16 -7 29 -5
22 5 22 5 -1 -6 -24 -10 -22 -30 3 -30 22 0 39 38 24 56 -13 16 -34 19 -24 4z"/>
<path d="M268 288 c6 -6 18 -8 28 -6 14 3 12 5 -9 10 -19 3 -25 2 -19 -4z"/>
<path d="M660 105 c7 -8 17 -15 22 -15 6 0 5 7 -2 15 -7 8 -17 15 -22 15 -6 0
-5 -7 2 -15z"/>
<path d="M35 190 c-3 -5 -1 -10 4 -10 6 0 11 5 11 10 0 6 -2 10 -4 10 -3 0 -8
-4 -11 -10z"/>
<path d="M0 55 c0 -32 4 -55 11 -55 5 0 7 5 3 12 -5 8 0 9 15 5 17 -4 24 0 32
20 10 26 -4 58 -21 48 -4 -3 -10 2 -14 10 -12 33 -26 12 -26 -40z"/>
<path d="M458 99 c-22 -12 -24 -71 -4 -88 8 -6 31 -10 53 -9 34 3 38 6 38 28
0 19 5 24 20 22 16 -2 17 -1 5 7 -8 5 -17 8 -20 6 -3 -1 -11 3 -18 11 -7 8 -9
14 -5 14 4 0 1 5 -7 10 -19 12 -40 12 -62 -1z"/>
<path d="M406 84 c-9 -23 -2 -28 13 -10 7 8 8 17 3 20 -6 3 -13 -1 -16 -10z"/>
<path d="M560 19 c0 -15 4 -19 16 -15 9 3 20 6 25 6 4 0 6 7 3 15 -9 24 -44
19 -44 -6z"/>
</g>
</svg>
