<svg xmlns="http://www.w3.org/2000/svg" width="285" height="385" viewBox="0 100 285 385" version="1.1">


	<path fill-opacity="1" d="

	M 213.320 122.551 C 205.408 124.171, 194.230 128.824, 189.395 132.512 C 185.116 135.776, 179.639 144.513, 180.297 147.027 C 180.633 148.314, 180.180 149.369, 179.024 149.987 C 173.924 152.716, 170.875 164.632, 175 165.710 C 177.877 166.463, 177.499 167.206, 172.909 169.828 C 165.648 173.975, 161 178.864, 161 182.355 C 161 184.153, 158.064 191.629, 154.075 199.988 C 144.735 219.561, 136.767 239.469, 136.507 243.881 C 136.390 245.872, 134.237 253.800, 131.724 261.500 C 125.751 279.797, 123.728 287.842, 124.454 290.409 C 124.878 291.908, 128.791 294.269, 138.273 298.749 C 145.548 302.186, 152.738 305.437, 154.250 305.974 C 156.091 306.628, 157.038 307.703, 157.116 309.225 C 157.202 310.919, 157.349 311.053, 157.689 309.750 C 157.941 308.788, 158.226 308, 158.323 308.001 C 158.420 308.001, 160.750 308.863, 163.500 309.915 C 169.532 312.223, 169.512 312.011, 165.161 327.918 C 164.179 331.509, 162.300 331.542, 160.150 328.007 C 158.608 325.471, 158.340 323.629, 158.757 318.434 C 159.119 313.935, 158.926 312, 158.118 312 C 157.386 312, 157.191 312.912, 157.585 314.483 C 157.928 315.849, 157.390 320.461, 156.390 324.733 C 154.125 334.410, 154.123 334.498, 156.245 334.510 C 157.205 334.516, 159.130 336.198, 160.523 338.248 C 162.998 341.891, 166.829 343.841, 168.943 342.535 C 170.461 341.597, 170.245 333.131, 168.559 327.531 C 167.100 322.681, 167.718 319.063, 171.084 312.750 C 171.741 311.518, 171.645 310.992, 170.758 310.972 C 167.452 310.900, 142.068 299.655, 134.436 294.881 L 125.832 289.500 126.396 285.257 C 126.706 282.923, 128.718 275.679, 130.867 269.159 C 133.016 262.639, 135.099 255.827, 135.495 254.021 L 136.217 250.737 137.505 253.619 C 138.214 255.203, 139.055 257.298, 139.374 258.273 C 140.032 260.282, 142.728 261.632, 143.793 260.487 C 144.182 260.068, 143.976 259.538, 143.336 259.308 C 142.522 259.016, 142.437 257.926, 143.053 255.695 C 143.818 252.927, 143.758 252.734, 142.608 254.250 C 140.677 256.794, 139.900 256.393, 141.025 253.435 C 142.347 249.957, 142.257 249.541, 140.500 251 C 138.836 252.381, 138.528 251.295, 139.946 249.053 C 140.744 247.792, 141.482 247.798, 145.676 249.101 C 148.616 250.014, 150.619 251.258, 150.818 252.295 C 151.048 253.488, 150.677 253.813, 149.573 253.390 C 148.560 253.001, 148 253.337, 148 254.334 C 148 255.185, 147.474 256.207, 146.830 256.605 C 146.043 257.091, 145.869 256.783, 146.299 255.664 C 146.650 254.749, 146.501 254, 145.969 254 C 145.436 254, 145 254.413, 145 254.918 C 145 255.423, 144.727 256.548, 144.393 257.418 C 143.962 258.542, 144.377 259, 145.826 259 C 146.987 259, 148.139 258.139, 148.500 257 C 148.849 255.900, 149.748 255, 150.498 255 C 151.248 255, 152.005 253.988, 152.180 252.750 C 152.381 251.340, 153.303 250.386, 154.652 250.193 C 156.899 249.873, 158.244 247.403, 159.929 240.500 C 160.466 238.300, 162.501 231.412, 164.452 225.193 C 166.404 218.974, 168 213.146, 168 212.243 C 168 209.146, 166.312 212.446, 164.543 219 C 161.915 228.739, 155.949 246.331, 154.801 247.728 C 152.816 250.144, 138 246.361, 138 243.438 C 138 242.699, 138.506 240.835, 139.125 239.297 C 139.743 237.759, 140.614 235.600, 141.060 234.500 C 141.505 233.400, 143.883 227.325, 146.344 221 C 148.805 214.675, 153.196 204.799, 156.102 199.054 C 160.920 189.528, 161.448 188.845, 162.106 191.303 C 164.492 200.224, 177.232 217, 181.621 217 C 187.185 217, 202.776 206.510, 209.663 198.131 L 211.826 195.500 212.473 198.500 C 213.779 204.549, 218.173 214.894, 220.506 217.412 C 225.440 222.736, 236.016 219.542, 247.342 209.310 L 251.396 205.648 252.192 208.574 C 254.318 216.381, 252.521 261.289, 249.886 266.213 C 249.300 267.308, 247.789 268, 245.984 268 L 243.039 268 242.770 246.333 C 242.556 229.174, 242.218 224.572, 241.145 224.214 C 240.123 223.874, 239.986 224.345, 240.588 226.132 C 241.858 229.900, 241.238 269.011, 239.855 272.349 C 238.943 274.552, 238.937 275.670, 239.831 277.101 C 240.474 278.131, 241 279.649, 241 280.475 C 241 281.429, 241.805 281.890, 243.209 281.738 C 244.724 281.575, 245.549 282.128, 245.834 283.500 C 246.325 285.859, 244.152 304.901, 243.172 306.830 C 241.882 309.369, 229.277 312.889, 218.918 313.603 C 213.429 313.981, 208.751 314.593, 208.522 314.964 C 208.293 315.335, 209.379 315.451, 210.934 315.223 C 212.490 314.995, 214.008 315.204, 214.307 315.688 C 214.985 316.785, 213.435 335.488, 212.546 336.925 C 211.570 338.505, 207.392 335.405, 206.181 332.201 C 205.620 330.716, 204.908 327.700, 204.600 325.500 C 204.292 323.300, 203.753 320.262, 203.403 318.750 C 202.887 316.520, 203.120 315.984, 204.633 315.914 C 205.972 315.852, 205.780 315.609, 203.957 315.056 C 200.655 314.053, 178.614 312.947, 179.493 313.828 C 179.862 314.197, 184.937 314.725, 190.770 315 L 201.377 315.500 202.669 320.500 C 203.380 323.250, 204.006 329.100, 204.060 333.500 C 204.114 337.900, 204.386 340.935, 204.664 340.244 C 204.943 339.553, 205.563 339.230, 206.042 339.526 C 206.521 339.822, 206.659 340.725, 206.349 341.532 C 206.023 342.381, 206.362 343, 207.152 343 C 207.904 343, 209.102 343.933, 209.814 345.074 C 211.015 346.998, 216.595 350, 218.968 350 C 220.805 350, 220.064 343.117, 217.565 336.967 C 215.545 331.995, 215.215 329.825, 215.630 324.237 C 215.905 320.532, 216.290 316.994, 216.486 316.375 C 216.681 315.756, 219.797 314.933, 223.410 314.546 C 231.882 313.639, 245.482 308.996, 245.539 306.991 C 245.574 305.751, 246.792 289.908, 247.426 282.434 C 247.523 281.298, 248.526 279.048, 249.657 277.434 C 251.219 275.203, 251.867 272.223, 252.361 265 C 252.719 259.775, 253.402 251.450, 253.881 246.500 C 254.359 241.550, 254.588 227.538, 254.389 215.362 C 254.040 193.939, 253.936 192.971, 251.163 185.362 C 249.587 181.038, 248.005 176.825, 247.647 176 C 247.210 174.992, 247.969 173.948, 249.963 172.817 C 253.890 170.588, 254.627 167.076, 252.656 159.985 C 251.383 155.407, 251.277 153.503, 252.155 150.984 C 253.612 146.805, 252.572 135.823, 250.277 131.150 C 249.184 128.926, 246.631 126.388, 243.646 124.558 C 239.319 121.906, 237.799 121.556, 229.646 121.332 C 224.468 121.190, 217.385 121.719, 213.320 122.551

	M 210 146.098 C 199.018 146.789, 190.224 148.633, 188.185 150.673 C 187.402 151.455, 186.928 152.230, 187.131 152.394 C 187.334 152.559, 190.822 152.373, 194.882 151.982 C 204.647 151.040, 210.631 152.440, 213.955 156.445 C 215.414 158.204, 223.002 158.598, 224.603 156.997 C 225.481 156.119, 237.394 154.117, 242.250 154.031 C 243.213 154.014, 244 153.384, 244 152.632 C 244 151.810, 241.505 150.554, 237.750 149.486 C 226.593 146.313, 219.788 145.482, 210 146.098

	M 178.583 153.866 C 178.152 154.563, 178.070 155.403, 178.400 155.733 C 179.295 156.628, 180.271 155.312, 179.787 153.862 C 179.449 152.846, 179.213 152.846, 178.583 153.866

	M 184.479 157.261 C 183.664 161.605, 184.523 168.189, 186.359 171.675 C 189.255 177.171, 196.905 184.061, 203.581 187.185 C 209.385 189.901, 210.902 190.201, 216.521 189.750 C 221.196 189.375, 224.162 188.458, 227.693 186.295 C 232.693 183.232, 239.278 175.503, 240.936 170.750 L 241.896 168 235.639 168 C 231.478 168, 228.732 167.479, 227.441 166.445 C 225.566 164.943, 225.574 164.926, 227.684 165.945 C 230.165 167.143, 239.939 167.347, 241.593 166.235 C 243.244 165.125, 244.140 159.205, 242.785 158.367 C 240.847 157.169, 231.635 157.837, 227.760 159.456 C 224.152 160.963, 224.091 161.082, 223.798 167.243 L 223.500 173.500 218.610 173.810 C 215.921 173.981, 213.345 173.745, 212.885 173.285 C 212.425 172.825, 212.567 170.762, 213.200 168.700 C 214.723 163.739, 213.098 161.697, 209.916 164.574 C 208.314 166.022, 206.340 166.492, 201.960 166.466 C 195.327 166.427, 193.335 165.135, 189.301 158.251 C 187.931 155.913, 186.423 154, 185.950 154 C 185.477 154, 184.815 155.468, 184.479 157.261

	M 193.500 155.216 C 189.386 156.667, 189.422 156.531, 192.106 160.462 C 196.823 167.372, 206.361 167.784, 212.202 161.330 C 214.599 158.681, 213.209 157.140, 206.911 155.464 C 200.649 153.797, 197.678 153.742, 193.500 155.216

	M 176.609 160.250 C 176.992 162.477, 176.866 163.073, 176.209 162.143 C 175.539 161.195, 175.044 161.120, 174.566 161.893 C 174.190 162.502, 174.471 163.007, 175.191 163.015 C 176.142 163.026, 176.090 163.296, 175 164 C 174.095 164.585, 173.973 164.975, 174.693 164.985 C 176.253 165.005, 179 161.046, 179 158.777 C 179 157.800, 178.336 157, 177.525 157 C 176.413 157, 176.188 157.800, 176.609 160.250

	M 196.750 157.689 C 192.727 158.741, 196.602 162, 201.875 162 C 205.603 162, 206.917 160.144, 204.462 158.348 C 202.638 157.015, 200.146 156.802, 196.750 157.689

	M 248.531 158.293 C 248.103 159.279, 248.034 160.367, 248.376 160.710 C 249.392 161.725, 250.211 160.299, 249.743 158.328 C 249.329 156.581, 249.275 156.580, 248.531 158.293

	M 214.905 159.250 C 214.853 159.387, 214.701 162.438, 214.566 166.029 L 214.321 172.559 218.410 172.529 L 222.500 172.500 222.803 167.784 C 223.201 161.604, 221.767 159, 217.965 159 C 216.334 159, 214.957 159.113, 214.905 159.250

	M 233.675 161.658 C 232.439 162.895, 235.240 165, 238.122 165 C 240.333 165, 241 164.537, 241 163 C 241 161.400, 240.333 161, 237.667 161 C 235.833 161, 234.037 161.296, 233.675 161.658

	M 178.381 166.807 C 178.792 167.473, 177.542 168.705, 175.285 169.859 C 173.203 170.924, 169.369 173.673, 166.765 175.969 C 161.747 180.393, 161.564 181.167, 163.561 189.533 C 164.713 194.357, 171.971 207.205, 175.829 211.250 C 179.966 215.587, 182.411 215.904, 188.929 212.947 C 194.964 210.209, 212 195.457, 212 192.969 C 212 192.489, 208.287 190.347, 203.750 188.208 C 194.999 184.084, 187.160 176.988, 184.582 170.858 C 183.794 168.983, 182.998 168.195, 182.578 168.874 C 181.527 170.574, 178.681 170.273, 179.349 168.532 C 179.659 167.725, 179.413 166.755, 178.802 166.378 C 178.143 165.970, 177.972 166.145, 178.381 166.807

	M 245.180 170.172 C 245.356 171.366, 246.074 172.457, 246.775 172.597 C 247.476 172.736, 247.637 172.637, 247.131 172.377 C 246.626 172.117, 246.442 171.026, 246.723 169.952 C 247.017 168.826, 246.731 168, 246.047 168 C 245.395 168, 245.005 168.977, 245.180 170.172

	M 248.500 170 C 248.160 170.550, 248.359 171, 248.941 171 C 249.523 171, 250 170.550, 250 170 C 250 169.450, 249.802 169, 249.559 169 C 249.316 169, 248.840 169.450, 248.500 170

	M 239.752 175.358 C 234.251 184.057, 226.831 189.650, 219.450 190.662 C 216.700 191.039, 214.562 191.949, 214.012 192.978 C 212.362 196.061, 217.421 211.298, 221.720 216.193 C 226.130 221.215, 236.234 217.699, 246.750 207.485 C 252.027 202.359, 253 200.879, 253 197.976 C 253 193.750, 247.415 177.823, 245.039 175.272 C 244.084 174.247, 243.122 172.869, 242.901 172.210 C 242.681 171.551, 241.263 172.968, 239.752 175.358

	M 212.500 180 C 211.699 181.295, 217.995 181.295, 220 180 C 221.100 179.289, 220.383 179.027, 217.309 179.015 C 215.004 179.007, 212.840 179.450, 212.500 180

	M 204 210.797 C 201.885 211.506, 201.033 213.068, 201.015 216.271 C 200.995 219.898, 204.782 221.876, 208.500 220.182 C 213.756 217.787, 209.518 208.948, 204 210.797

	M 199.939 233.061 C 196.810 236.190, 197.675 240.201, 201.730 241.357 C 205.721 242.495, 208 240.923, 208 237.033 C 208 234.299, 205.359 231, 203.171 231 C 202.527 231, 201.073 231.927, 199.939 233.061

	M 241.932 271.127 C 241.067 272.744, 241.084 273.434, 242.004 274.002 C 242.723 274.447, 242.941 275.612, 242.540 276.875 C 241.640 279.710, 242.821 279.606, 243.969 276.750 C 244.817 274.640, 244.881 274.687, 245.004 277.500 L 245.135 280.500 246.289 278 C 246.924 276.625, 248.018 275.140, 248.721 274.700 C 249.425 274.260, 250 272.798, 250 271.450 C 250 269.321, 249.546 269, 246.535 269 C 244.025 269, 242.757 269.586, 241.932 271.127

	M 197 295.393 C 197 295.609, 197.698 296.054, 198.552 296.382 C 199.442 296.723, 199.843 296.555, 199.493 295.989 C 198.906 295.038, 197 294.583, 197 295.393



" stroke="none" fill="black" fill-rule="evenodd"/>

</svg>
